<?xml version="1.0" encoding="UTF-8" standalone="no"?>
<!-- Created with Inkscape (http://www.inkscape.org/) -->

<svg
   xmlns:dc="http://purl.org/dc/elements/1.1/"
   xmlns:cc="http://creativecommons.org/ns#"
   xmlns:rdf="http://www.w3.org/1999/02/22-rdf-syntax-ns#"
   xmlns:svg="http://www.w3.org/2000/svg"
   xmlns="http://www.w3.org/2000/svg"
   xmlns:sodipodi="http://sodipodi.sourceforge.net/DTD/sodipodi-0.dtd"
   xmlns:inkscape="http://www.inkscape.org/namespaces/inkscape"
   width="210mm"
   height="297mm"
   viewBox="0 0 210 297"
   version="1.1"
   id="svg8"
   inkscape:version="0.92.3 (2405546, 2018-03-11)"
   sodipodi:docname="Settings.svg">
  <defs
     id="defs2" />
  <sodipodi:namedview
     id="base"
     pagecolor="#ffffff"
     bordercolor="#666666"
     borderopacity="1.0"
     inkscape:pageopacity="0.0"
     inkscape:pageshadow="2"
     inkscape:zoom="0.35"
     inkscape:cx="-87.142857"
     inkscape:cy="560"
     inkscape:document-units="mm"
     inkscape:current-layer="layer1"
     showgrid="false"
     inkscape:window-width="1920"
     inkscape:window-height="1138"
     inkscape:window-x="-8"
     inkscape:window-y="-8"
     inkscape:window-maximized="1" />
  <metadata
     id="metadata5">
    <rdf:RDF>
      <cc:Work
         rdf:about="">
        <dc:format>image/svg+xml</dc:format>
        <dc:type
           rdf:resource="http://purl.org/dc/dcmitype/StillImage" />
        <dc:title></dc:title>
      </cc:Work>
    </rdf:RDF>
  </metadata>
  <g
     inkscape:label="Layer 1"
     inkscape:groupmode="layer"
     id="layer1">
    <g
       id="g819"
       transform="matrix(0.26458333,0,0,0.26458333,-0.7531833,46.023811)"
       style="fill:#aeaeae;fill-opacity:1;stroke:none">
      <path
         id="path817"
         d="m 864.2,548 c 2,-15.7 3.4,-31.4 3.4,-48 0,-16.7 -1.5,-32.4 -3.4,-48 l 103.4,-80.9 c 9.3,-7.4 11.7,-20.6 5.9,-31.4 l -98,-169.5 c -5.9,-10.8 -19.1,-14.7 -29.9,-10.8 l -122,49 c -25.5,-19.6 -53,-35.7 -82.8,-48 L 622.1,30.6 C 620.6,18.9 610.4,10 598.1,10 h -196 c -12.3,0 -22.5,8.8 -24,20.6 l -18.6,129.9 c -29.9,12.3 -57.3,28.9 -82.8,48 l -122.1,-49 c -11.3,-4.4 -24,0 -29.9,10.8 l -98,169.5 c -6.3,10.8 -3.4,24 5.9,31.4 L 136,452 c -2,15.7 -3.4,31.8 -3.4,48 0,16.2 1.5,32.4 3.4,48 L 32.6,628.9 c -9.3,7.3 -11.7,20.6 -5.9,31.4 l 98,169.5 c 5.9,10.8 19.1,14.7 29.9,10.8 l 122,-49 c 25.5,19.6 53,35.7 82.8,48 L 378,969.4 c 1.5,11.7 11.7,20.6 24,20.6 h 196.1 c 12.3,0 22.5,-8.8 24,-20.6 l 18.6,-129.9 c 29.9,-12.3 57.3,-28.9 82.8,-48 l 122,49 c 11.3,4.4 24,0 29.9,-10.8 l 98,-169.5 c 5.9,-10.8 3.4,-24 -5.9,-31.4 z M 500.1,671.5 c -94.5,0 -171.5,-77 -171.5,-171.5 0,-94.5 77,-171.5 171.5,-171.5 94.5,0 171.5,77 171.5,171.5 0,94.5 -77,171.5 -171.5,171.5 z"
         inkscape:connector-curvature="0"
         style="fill:#aeaeae;fill-opacity:1;stroke:none" />
    </g>
  </g>
</svg>
